<svg width="24" height="25" viewBox="0 0 24 25" fill="none" xmlns="http://www.w3.org/2000/svg">
<path d="M22 16C22 18.7614 19.7614 21 17 21C16.1045 21 15.2641 20.7646 14.5371 20.3523C13.2572 19.6265 12.329 18.3523 12.0718 16.8491C12.0246 16.5731 12 16.2895 12 16C12 14.7162 12.4839 13.5453 13.2793 12.6599C14.1946 11.6409 15.5224 11 17 11C19.7614 11 22 13.2386 22 16Z" fill="#09244B" stroke="#09244B" stroke-width="2" stroke-linecap="round" stroke-linejoin="round"/>
<path d="M17 6.5V10.5V11C15.5224 11 14.1946 11.6409 13.2793 12.6599C12.4839 13.5453 12 14.7162 12 16C12 16.2894 12.0246 16.5731 12.0718 16.8491C12.329 18.3523 13.2572 19.6265 14.5371 20.3523C13.2058 20.7548 11.4388 21 9.5 21C5.35785 21 2 19.8807 2 18.5V14.5V10.5V6.5" stroke="#09244B" stroke-width="2" stroke-linecap="round" stroke-linejoin="round"/>
<path d="M17 6.5C17 7.8807 13.6421 9 9.5 9C5.35785 9 2 7.8807 2 6.5C2 5.11929 5.35785 4 9.5 4C13.6421 4 17 5.11929 17 6.5Z" fill="#09244B" stroke="#09244B" stroke-width="2" stroke-linecap="round" stroke-linejoin="round"/>
<path d="M2 14.5C2 15.8807 5.35785 17 9.5 17C10.4035 17 11.2697 16.9467 12.0718 16.8491" stroke="#09244B" stroke-width="2" stroke-linecap="round" stroke-linejoin="round"/>
<path d="M2 10.5C2 11.8807 5.35785 13 9.5 13C10.8781 13 12.1695 12.8761 13.2793 12.6599" stroke="#09244B" stroke-width="2" stroke-linecap="round" stroke-linejoin="round"/>
<path d="M17 13.5L15.5 15.5L18.5 16.5L17 18.5" stroke="white" stroke-width="2" stroke-linecap="round" stroke-linejoin="round"/>
</svg>
