<svg width="14" height="9" viewBox="0 0 14 9" fill="none" xmlns="http://www.w3.org/2000/svg">
<path d="M6.99999 2.99999C6.17156 2.99999 5.49999 3.67156 5.49999 4.49999C5.49999 5.32842 6.17156 5.99999 6.99999 5.99999C7.82842 5.99999 8.49999 5.32842 8.49999 4.49999C8.49999 3.67156 7.82842 2.99999 6.99999 2.99999Z" fill="white"/>
<path fill-rule="evenodd" clip-rule="evenodd" d="M6.99999 0.166656C5.25481 0.166656 3.68533 0.867581 2.5544 1.73556C1.9882 2.17012 1.52361 2.65274 1.19765 3.12244C0.877897 3.5832 0.666656 4.06768 0.666656 4.49999C0.666656 4.9323 0.877897 5.41678 1.19765 5.87754C1.52361 6.34724 1.9882 6.82986 2.5544 7.26442C3.68533 8.1324 5.25481 8.83332 6.99999 8.83332C8.74517 8.83332 10.3147 8.1324 11.4456 7.26442C12.0118 6.82986 12.4764 6.34724 12.8023 5.87754C13.1221 5.41678 13.3333 4.9323 13.3333 4.49999C13.3333 4.06768 13.1221 3.5832 12.8023 3.12244C12.4764 2.65274 12.0118 2.17012 11.4456 1.73556C10.3147 0.867581 8.74517 0.166656 6.99999 0.166656ZM4.49999 4.49999C4.49999 3.11928 5.61928 1.99999 6.99999 1.99999C8.3807 1.99999 9.49999 3.11928 9.49999 4.49999C9.49999 5.8807 8.3807 6.99999 6.99999 6.99999C5.61928 6.99999 4.49999 5.8807 4.49999 4.49999Z" fill="white"/>
</svg>
