<svg width="16" height="16" viewBox="0 0 16 16" fill="none" xmlns="http://www.w3.org/2000/svg">
<g clip-path="url(#clip0_48_355)" filter="url(#filter0_i_48_355)">
<path d="M9.23755 10.8234C9.19735 10.7424 9.16591 10.6573 9.14376 10.5697C9.11645 10.4699 9.09438 10.3687 9.07762 10.2667C8.98896 10.3622 8.89108 10.4488 8.78542 10.5252C8.67288 10.6084 8.55198 10.6798 8.42468 10.738C8.28027 10.8012 8.12951 10.8488 7.97496 10.8799C7.80298 10.9161 7.62763 10.9338 7.45189 10.9328C7.16592 10.9357 6.88146 10.891 6.61016 10.8005C6.36931 10.7202 6.14605 10.5944 5.95242 10.4302C5.76696 10.2733 5.61842 10.0773 5.51741 9.85637C5.41639 9.63542 5.36538 9.3949 5.36802 9.15197C5.36802 8.52428 5.6021 8.03888 6.07026 7.69578C6.53842 7.35268 7.23745 7.18072 8.16736 7.17992H9.02111V6.8288C9.02712 6.70165 9.00503 6.57473 8.95639 6.45709C8.90776 6.33946 8.83378 6.23399 8.73973 6.14821C8.55335 5.98106 8.28279 5.89809 7.93047 5.89809C7.61783 5.89809 7.39056 5.96423 7.24747 6.09891C7.17513 6.16781 7.11846 6.25148 7.08133 6.34422C7.04419 6.43697 7.02744 6.53662 7.03223 6.63641H5.50149C5.5012 6.38615 5.55882 6.13922 5.66984 5.91493C5.78661 5.68052 5.95422 5.47512 6.16044 5.3137C6.39569 5.12999 6.66265 4.99101 6.94806 4.90366C7.29276 4.79587 7.6523 4.74312 8.01344 4.74734C8.35342 4.74478 8.69213 4.78929 9.0199 4.87961C9.31098 4.95873 9.58465 5.09169 9.82676 5.27161C10.0568 5.44398 10.242 5.66917 10.3667 5.92816C10.5005 6.21302 10.5668 6.52495 10.5603 6.83963V9.39607C10.5561 9.66189 10.5762 9.92753 10.6204 10.1897C10.6539 10.377 10.7134 10.5587 10.7971 10.7296V10.8234H9.23755ZM7.77655 9.74839C7.92021 9.7492 8.06334 9.731 8.20223 9.69428C8.32762 9.66021 8.44867 9.61179 8.56297 9.54998C8.66362 9.49613 8.7563 9.42855 8.83833 9.34917C8.90913 9.28178 8.97024 9.20489 9.0199 9.1207V8.0962H8.2395C8.03377 8.09237 7.82842 8.11541 7.62865 8.16474C7.47974 8.20062 7.33924 8.26515 7.215 8.35473C7.11109 8.43239 7.02839 8.53494 6.97451 8.65294C6.92231 8.7719 6.89608 8.90062 6.89755 9.03052C6.89532 9.12727 6.91405 9.22336 6.95245 9.31219C6.99085 9.40103 7.04801 9.48051 7.12001 9.54517C7.26511 9.68145 7.48395 9.74919 7.77655 9.74839Z" fill="#09244B"/>
<path d="M14.6335 8.00002C14.6335 11.6636 11.6636 14.6335 8.00002 14.6335C4.33644 14.6335 1.36652 11.6636 1.36652 8.00002C1.36652 4.33644 4.33644 1.36652 8.00002 1.36652C11.6636 1.36652 14.6335 4.33644 14.6335 8.00002Z" stroke="#09244B" stroke-width="1.57143" stroke-miterlimit="10"/>
</g>
<defs>
<filter id="filter0_i_48_355" x="0" y="0" width="16" height="16.3158" filterUnits="userSpaceOnUse" color-interpolation-filters="sRGB">
<feFlood flood-opacity="0" result="BackgroundImageFix"/>
<feBlend mode="normal" in="SourceGraphic" in2="BackgroundImageFix" result="shape"/>
<feColorMatrix in="SourceAlpha" type="matrix" values="0 0 0 0 0 0 0 0 0 0 0 0 0 0 0 0 0 0 127 0" result="hardAlpha"/>
<feOffset dy="0.315789"/>
<feGaussianBlur stdDeviation="0.157895"/>
<feComposite in2="hardAlpha" operator="arithmetic" k2="-1" k3="1"/>
<feColorMatrix type="matrix" values="0 0 0 0 0 0 0 0 0 0 0 0 0 0 0 0 0 0 0.25 0"/>
<feBlend mode="normal" in2="shape" result="effect1_innerShadow_48_355"/>
</filter>
<clipPath id="clip0_48_355">
<rect width="16" height="16" fill="white"/>
</clipPath>
</defs>
</svg>
