<svg width="16" height="16" viewBox="0 0 16 16" fill="none" xmlns="http://www.w3.org/2000/svg">
<path d="M6.66675 9.33333C7.10562 9.78126 7.70632 10.0337 8.33341 10.0337C8.96051 10.0337 9.56121 9.78126 10.0001 9.33333L12.6667 6.66666C13.5872 5.74619 13.5872 4.25381 12.6667 3.33333C11.7463 2.41286 10.2539 2.41286 9.33341 3.33333L9.00008 3.66666" stroke="#09244B" stroke-width="1.36364" stroke-linecap="round" stroke-linejoin="round"/>
<path d="M9.33342 6.66668C8.89455 6.21876 8.29385 5.96634 7.66676 5.96634C7.03966 5.96634 6.43896 6.21876 6.00009 6.66668L3.33342 9.33335C2.41295 10.2538 2.41295 11.7462 3.33342 12.6667C4.2539 13.5872 5.74628 13.5872 6.66676 12.6667L7.00009 12.3333" stroke="#09244B" stroke-width="1.36364" stroke-linecap="round" stroke-linejoin="round"/>
</svg>
