<svg width="154" height="39" viewBox="0 0 154 39" fill="none" xmlns="http://www.w3.org/2000/svg">
<path d="M54.4455 12.3891C55.8563 10.9784 55.8563 8.69101 54.4455 7.28022L51.3802 4.21487C49.0524 1.88707 45.2783 1.88707 42.9505 4.21487L19.0662 28.0991V28.0991C24.4978 33.5306 33.3041 33.5306 38.7356 28.0991L54.4455 12.3891Z" fill="#6447F2"/>
<path fill-rule="evenodd" clip-rule="evenodd" d="M37.8921 9.2298L36.6276 7.95971C31.2115 2.51972 22.408 2.51002 16.9799 7.93805L28.1175 19.0756C33.5475 24.5056 42.3527 24.501 47.777 19.0652L54.63 12.2122C52.6849 13.6472 50.2803 14.4953 47.6777 14.4953C43.5894 14.4953 39.9899 12.4025 37.8921 9.2298Z" fill="#947FFF"/>
<path d="M2.55446 13.0926C1.14367 11.6818 1.14367 9.39449 2.55446 7.9837L5.61981 4.91835C7.94762 2.59055 11.7217 2.59054 14.0495 4.91835L37.9338 28.8026V28.8026C32.5022 34.2341 23.6959 34.2341 18.2644 28.8026L2.55446 13.0926Z" fill="#6447F2"/>
<circle cx="49.8217" cy="29.3565" r="3.82479" fill="#36F097"/>
<path d="M81.9392 15.0746C82.0592 15.0266 82.2332 14.9726 82.4612 14.9126C82.7012 14.8406 82.9412 14.8046 83.1812 14.8046C83.6012 14.8046 83.9492 14.8706 84.2252 15.0026C84.5012 15.1226 84.6692 15.3026 84.7292 15.5426C84.9572 16.2746 85.1552 16.9466 85.3232 17.5586C85.5032 18.1586 85.6772 18.7466 85.8452 19.3226C86.0132 19.8866 86.1812 20.4806 86.3492 21.1046H86.4212C86.6012 20.0846 86.7572 19.1126 86.8892 18.1886C87.0332 17.2646 87.1712 16.3466 87.3032 15.4346C87.4352 14.5226 87.5612 13.5806 87.6812 12.6086C88.0412 12.4166 88.4252 12.3206 88.8332 12.3206C89.2052 12.3206 89.5172 12.4046 89.7692 12.5726C90.0332 12.7286 90.1652 12.9866 90.1652 13.3466C90.1652 13.5986 90.1352 13.9646 90.0752 14.4446C90.0152 14.9126 89.9372 15.4586 89.8412 16.0826C89.7452 16.6946 89.6312 17.3306 89.4992 17.9906C89.3672 18.6506 89.2292 19.2986 89.0852 19.9346C88.9412 20.5706 88.7972 21.1526 88.6532 21.6806C88.5092 22.2086 88.3712 22.6346 88.2392 22.9586C88.0832 23.0906 87.8372 23.2046 87.5012 23.3006C87.1772 23.3846 86.8352 23.4266 86.4752 23.4266C86.0312 23.4266 85.6472 23.3606 85.3232 23.2286C84.9992 23.0966 84.8012 22.9226 84.7292 22.7066C84.5972 22.3466 84.4532 21.9206 84.2972 21.4286C84.1412 20.9246 83.9732 20.3786 83.7932 19.7906C83.6252 19.2026 83.4572 18.5966 83.2892 17.9726C83.1452 18.5846 82.9892 19.2026 82.8212 19.8266C82.6532 20.4506 82.4852 21.0386 82.3172 21.5906C82.1612 22.1306 82.0172 22.5926 81.8852 22.9766C81.7412 23.0966 81.5192 23.2046 81.2192 23.3006C80.9312 23.3846 80.6072 23.4266 80.2472 23.4266C79.8032 23.4266 79.4072 23.3606 79.0592 23.2286C78.7112 23.0966 78.4832 22.9226 78.3752 22.7066C78.2552 22.4306 78.1112 22.0106 77.9432 21.4466C77.7872 20.8826 77.6192 20.2346 77.4392 19.5026C77.2592 18.7586 77.0852 17.9906 76.9172 17.1986C76.7612 16.4066 76.6172 15.6326 76.4852 14.8766C76.3532 14.1206 76.2512 13.4426 76.1792 12.8426C76.3112 12.7106 76.5032 12.5906 76.7552 12.4826C77.0072 12.3746 77.2712 12.3206 77.5472 12.3206C77.9312 12.3206 78.2372 12.4046 78.4652 12.5726C78.7052 12.7286 78.8552 13.0046 78.9152 13.4006C79.1072 14.4566 79.2632 15.3746 79.3832 16.1546C79.5152 16.9346 79.6292 17.6186 79.7252 18.2066C79.8332 18.7946 79.9292 19.3226 80.0132 19.7906C80.0972 20.2466 80.1812 20.6846 80.2652 21.1046H80.3552C80.4872 20.6006 80.6072 20.1326 80.7152 19.7006C80.8352 19.2566 80.9552 18.8126 81.0752 18.3686C81.2072 17.9246 81.3392 17.4386 81.4712 16.9106C81.6152 16.3706 81.7712 15.7586 81.9392 15.0746ZM92.8653 20.2406L92.7573 18.5126L97.3653 17.8106C97.3293 17.4266 97.1673 17.0846 96.8793 16.7846C96.6033 16.4846 96.1953 16.3346 95.6553 16.3346C95.0793 16.3346 94.6053 16.5266 94.2333 16.9106C93.8613 17.2946 93.6633 17.8466 93.6393 18.5666L93.7113 19.7006C93.8193 20.3966 94.1073 20.9006 94.5753 21.2126C95.0433 21.5246 95.6133 21.6806 96.2853 21.6806C96.7893 21.6806 97.2573 21.6086 97.6893 21.4646C98.1333 21.3206 98.4873 21.1646 98.7513 20.9966C98.9193 21.1046 99.0573 21.2486 99.1653 21.4286C99.2853 21.6086 99.3453 21.8006 99.3453 22.0046C99.3453 22.3406 99.2013 22.6286 98.9133 22.8686C98.6373 23.1086 98.2593 23.2886 97.7793 23.4086C97.2993 23.5286 96.7473 23.5886 96.1233 23.5886C95.1873 23.5886 94.3533 23.4146 93.6213 23.0666C92.9013 22.7186 92.3313 22.1966 91.9113 21.5006C91.5033 20.8046 91.2993 19.9406 91.2993 18.9086C91.2993 18.1646 91.4193 17.5106 91.6593 16.9466C91.8993 16.3826 92.2173 15.9206 92.6133 15.5606C93.0213 15.1886 93.4833 14.9126 93.9993 14.7326C94.5273 14.5526 95.0733 14.4626 95.6373 14.4626C96.4533 14.4626 97.1613 14.6246 97.7613 14.9486C98.3733 15.2726 98.8533 15.7166 99.2013 16.2806C99.5493 16.8446 99.7233 17.4926 99.7233 18.2246C99.7233 18.5846 99.6273 18.8606 99.4353 19.0526C99.2433 19.2326 98.9793 19.3466 98.6433 19.3946L92.8653 20.2406ZM106.285 15.0746C106.405 15.0266 106.579 14.9726 106.807 14.9126C107.047 14.8406 107.287 14.8046 107.527 14.8046C107.947 14.8046 108.295 14.8706 108.571 15.0026C108.847 15.1226 109.015 15.3026 109.075 15.5426C109.303 16.2746 109.501 16.9466 109.669 17.5586C109.849 18.1586 110.023 18.7466 110.191 19.3226C110.359 19.8866 110.527 20.4806 110.695 21.1046H110.767C110.947 20.0846 111.103 19.1126 111.235 18.1886C111.379 17.2646 111.517 16.3466 111.649 15.4346C111.781 14.5226 111.907 13.5806 112.027 12.6086C112.387 12.4166 112.771 12.3206 113.179 12.3206C113.551 12.3206 113.863 12.4046 114.115 12.5726C114.379 12.7286 114.511 12.9866 114.511 13.3466C114.511 13.5986 114.481 13.9646 114.421 14.4446C114.361 14.9126 114.283 15.4586 114.187 16.0826C114.091 16.6946 113.977 17.3306 113.845 17.9906C113.713 18.6506 113.575 19.2986 113.431 19.9346C113.287 20.5706 113.143 21.1526 112.999 21.6806C112.855 22.2086 112.717 22.6346 112.585 22.9586C112.429 23.0906 112.183 23.2046 111.847 23.3006C111.523 23.3846 111.181 23.4266 110.821 23.4266C110.377 23.4266 109.993 23.3606 109.669 23.2286C109.345 23.0966 109.147 22.9226 109.075 22.7066C108.943 22.3466 108.799 21.9206 108.643 21.4286C108.487 20.9246 108.319 20.3786 108.139 19.7906C107.971 19.2026 107.803 18.5966 107.635 17.9726C107.491 18.5846 107.335 19.2026 107.167 19.8266C106.999 20.4506 106.831 21.0386 106.663 21.5906C106.507 22.1306 106.363 22.5926 106.231 22.9766C106.087 23.0966 105.865 23.2046 105.565 23.3006C105.277 23.3846 104.953 23.4266 104.593 23.4266C104.149 23.4266 103.753 23.3606 103.405 23.2286C103.057 23.0966 102.829 22.9226 102.721 22.7066C102.601 22.4306 102.457 22.0106 102.289 21.4466C102.133 20.8826 101.965 20.2346 101.785 19.5026C101.605 18.7586 101.431 17.9906 101.263 17.1986C101.107 16.4066 100.963 15.6326 100.831 14.8766C100.699 14.1206 100.597 13.4426 100.525 12.8426C100.657 12.7106 100.849 12.5906 101.101 12.4826C101.353 12.3746 101.617 12.3206 101.893 12.3206C102.277 12.3206 102.583 12.4046 102.811 12.5726C103.051 12.7286 103.201 13.0046 103.261 13.4006C103.453 14.4566 103.609 15.3746 103.729 16.1546C103.861 16.9346 103.975 17.6186 104.071 18.2066C104.179 18.7946 104.275 19.3226 104.359 19.7906C104.443 20.2466 104.527 20.6846 104.611 21.1046H104.701C104.833 20.6006 104.953 20.1326 105.061 19.7006C105.181 19.2566 105.301 18.8126 105.421 18.3686C105.553 17.9246 105.685 17.4386 105.817 16.9106C105.961 16.3706 106.117 15.7586 106.285 15.0746ZM117.211 20.2406L117.103 18.5126L121.711 17.8106C121.675 17.4266 121.513 17.0846 121.225 16.7846C120.949 16.4846 120.541 16.3346 120.001 16.3346C119.425 16.3346 118.951 16.5266 118.579 16.9106C118.207 17.2946 118.009 17.8466 117.985 18.5666L118.057 19.7006C118.165 20.3966 118.453 20.9006 118.921 21.2126C119.389 21.5246 119.959 21.6806 120.631 21.6806C121.135 21.6806 121.603 21.6086 122.035 21.4646C122.479 21.3206 122.833 21.1646 123.097 20.9966C123.265 21.1046 123.403 21.2486 123.511 21.4286C123.631 21.6086 123.691 21.8006 123.691 22.0046C123.691 22.3406 123.547 22.6286 123.259 22.8686C122.983 23.1086 122.605 23.2886 122.125 23.4086C121.645 23.5286 121.093 23.5886 120.469 23.5886C119.533 23.5886 118.699 23.4146 117.967 23.0666C117.247 22.7186 116.677 22.1966 116.257 21.5006C115.849 20.8046 115.645 19.9406 115.645 18.9086C115.645 18.1646 115.765 17.5106 116.005 16.9466C116.245 16.3826 116.563 15.9206 116.959 15.5606C117.367 15.1886 117.829 14.9126 118.345 14.7326C118.873 14.5526 119.419 14.4626 119.983 14.4626C120.799 14.4626 121.507 14.6246 122.107 14.9486C122.719 15.2726 123.199 15.7166 123.547 16.2806C123.895 16.8446 124.069 17.4926 124.069 18.2246C124.069 18.5846 123.973 18.8606 123.781 19.0526C123.589 19.2326 123.325 19.3466 122.989 19.3946L117.211 20.2406ZM129.236 21.7166C129.548 21.7166 129.836 21.6866 130.1 21.6266C130.376 21.5666 130.58 21.4946 130.712 21.4106V19.5746L129.092 19.7186C128.66 19.7546 128.324 19.8506 128.084 20.0066C127.844 20.1626 127.724 20.3906 127.724 20.6906C127.724 21.0026 127.844 21.2546 128.084 21.4466C128.324 21.6266 128.708 21.7166 129.236 21.7166ZM129.146 14.4626C130.358 14.4626 131.324 14.7206 132.044 15.2366C132.776 15.7406 133.142 16.5386 133.142 17.6306V21.7346C133.142 22.0346 133.064 22.2746 132.908 22.4546C132.764 22.6226 132.578 22.7786 132.35 22.9226C132.002 23.1266 131.564 23.2886 131.036 23.4086C130.508 23.5286 129.908 23.5886 129.236 23.5886C128.024 23.5886 127.058 23.3546 126.338 22.8866C125.63 22.4186 125.276 21.7166 125.276 20.7806C125.276 19.9646 125.528 19.3406 126.032 18.9086C126.536 18.4766 127.286 18.2126 128.282 18.1166L130.694 17.8646V17.5946C130.694 17.1626 130.532 16.8506 130.208 16.6586C129.884 16.4666 129.428 16.3706 128.84 16.3706C128.384 16.3706 127.934 16.4306 127.49 16.5506C127.046 16.6586 126.65 16.7906 126.302 16.9466C126.17 16.8506 126.056 16.7126 125.96 16.5326C125.864 16.3406 125.816 16.1426 125.816 15.9386C125.816 15.4586 126.074 15.1106 126.59 14.8946C126.938 14.7506 127.34 14.6426 127.796 14.5706C128.252 14.4986 128.702 14.4626 129.146 14.4626ZM141.775 14.5526C142.123 14.5526 142.411 14.6306 142.639 14.7866C142.879 14.9306 142.999 15.1886 142.999 15.5606C142.999 15.7646 142.933 16.0946 142.801 16.5506C142.681 17.0066 142.519 17.5346 142.315 18.1346C142.123 18.7226 141.907 19.3346 141.667 19.9706C141.427 20.5946 141.181 21.1826 140.929 21.7346C140.689 22.2866 140.473 22.7486 140.281 23.1206C140.149 23.2166 139.951 23.3006 139.687 23.3726C139.423 23.4446 139.123 23.4806 138.787 23.4806C138.415 23.4806 138.091 23.4266 137.815 23.3186C137.539 23.2226 137.347 23.0666 137.239 22.8506C137.107 22.5986 136.939 22.2446 136.735 21.7886C136.543 21.3326 136.339 20.8106 136.123 20.2226C135.907 19.6346 135.685 19.0346 135.457 18.4226C135.241 17.7986 135.037 17.1986 134.845 16.6226C134.665 16.0346 134.521 15.5246 134.413 15.0926C134.557 14.9366 134.743 14.8106 134.971 14.7146C135.211 14.6066 135.469 14.5526 135.745 14.5526C136.093 14.5526 136.375 14.6306 136.591 14.7866C136.819 14.9306 136.987 15.2006 137.095 15.5966L137.941 18.5126C138.037 18.8366 138.139 19.1726 138.247 19.5206C138.355 19.8686 138.457 20.1986 138.553 20.5106C138.649 20.8106 138.727 21.0626 138.787 21.2666H138.859C139.183 20.2706 139.495 19.2146 139.795 18.0986C140.107 16.9706 140.383 15.8786 140.623 14.8226C140.959 14.6426 141.343 14.5526 141.775 14.5526ZM145.635 20.2406L145.527 18.5126L150.135 17.8106C150.099 17.4266 149.937 17.0846 149.649 16.7846C149.373 16.4846 148.965 16.3346 148.425 16.3346C147.849 16.3346 147.375 16.5266 147.003 16.9106C146.631 17.2946 146.433 17.8466 146.409 18.5666L146.481 19.7006C146.589 20.3966 146.877 20.9006 147.345 21.2126C147.813 21.5246 148.383 21.6806 149.055 21.6806C149.559 21.6806 150.027 21.6086 150.459 21.4646C150.903 21.3206 151.257 21.1646 151.521 20.9966C151.689 21.1046 151.827 21.2486 151.935 21.4286C152.055 21.6086 152.115 21.8006 152.115 22.0046C152.115 22.3406 151.971 22.6286 151.683 22.8686C151.407 23.1086 151.029 23.2886 150.549 23.4086C150.069 23.5286 149.517 23.5886 148.893 23.5886C147.957 23.5886 147.123 23.4146 146.391 23.0666C145.671 22.7186 145.101 22.1966 144.681 21.5006C144.273 20.8046 144.069 19.9406 144.069 18.9086C144.069 18.1646 144.189 17.5106 144.429 16.9466C144.669 16.3826 144.987 15.9206 145.383 15.5606C145.791 15.1886 146.253 14.9126 146.769 14.7326C147.297 14.5526 147.843 14.4626 148.407 14.4626C149.223 14.4626 149.931 14.6246 150.531 14.9486C151.143 15.2726 151.623 15.7166 151.971 16.2806C152.319 16.8446 152.493 17.4926 152.493 18.2246C152.493 18.5846 152.397 18.8606 152.205 19.0526C152.013 19.2326 151.749 19.3466 151.413 19.3946L145.635 20.2406Z" fill="#09244B"/>
</svg>
