<svg width="16" height="20" viewBox="0 0 16 20" fill="none" xmlns="http://www.w3.org/2000/svg">
<path fill-rule="evenodd" clip-rule="evenodd" d="M9.5858 0C10.0573 0 10.5116 0.166487 10.8702 0.466915L11 0.58579L15.4142 5C15.7476 5.3334 15.9511 5.77238 15.9923 6.23836L16 6.41421V18C16 19.0544 15.1841 19.9182 14.1493 19.9945L14 20H11V16.5C11 15.7203 10.4051 15.0796 9.64446 15.0069L9.5 15H6.5C5.7203 15 5.07955 15.5949 5.00687 16.3555L5 16.5V20H2C0.945638 20 0.0818346 19.1841 0.00548553 18.1493L0 18V2C0 0.945638 0.815877 0.0818349 1.85074 0.00548577L2 0H9.5858ZM9 17V20H7V17H9ZM7 11H6C5.44772 11 5 11.4477 5 12C5 12.5128 5.38604 12.9355 5.88338 12.9933L6 13H7C7.5523 13 8 12.5523 8 12C8 11.4872 7.61397 11.0645 7.11662 11.0067L7 11ZM10 9H9C8.4477 9 8 9.4477 8 10C8 10.5128 8.38603 10.9355 8.88338 10.9933L9 11H10C10.5523 11 11 10.5523 11 10C11 9.48715 10.614 9.06449 10.1166 9.00673L10 9ZM7 7H6C5.44772 7 5 7.44772 5 8C5 8.5523 5.44772 9 6 9H7C7.5523 9 8 8.5523 8 8C8 7.44772 7.5523 7 7 7ZM10 5H9C8.4477 5 8 5.44772 8 6C8 6.55228 8.4477 7 9 7H10C10.5523 7 11 6.55228 11 6C11 5.44772 10.5523 5 10 5Z" fill="#0056D1"/>
</svg>
