<svg width="16" height="20" viewBox="0 0 16 20" fill="none" xmlns="http://www.w3.org/2000/svg">
<path fill-rule="evenodd" clip-rule="evenodd" d="M14 0C15.1046 0 16 0.89543 16 2V12H9.5C8.6716 12 8 12.6716 8 13.5V20H2C0.89543 20 0 19.1046 0 18V2C0 0.89543 0.89543 0 2 0H14ZM15.9566 14C15.8771 14.3759 15.6901 14.7241 15.4142 15L11 19.4142C10.7241 19.6901 10.3759 19.8771 10 19.9566V14H15.9566ZM6 9H5C4.44772 9 4 9.4477 4 10C4 10.5523 4.44772 11 5 11H6C6.5523 11 7 10.5523 7 10C7 9.4477 6.5523 9 6 9ZM11 5H5C4.44772 5 4 5.44772 4 6C4 6.55229 4.44772 7 5 7H11C11.5523 7 12 6.55229 12 6C12 5.44772 11.5523 5 11 5Z" fill="#5B697E"/>
</svg>
