<svg width="19" height="19" viewBox="0 0 19 19" fill="none" xmlns="http://www.w3.org/2000/svg">
<path fill-rule="evenodd" clip-rule="evenodd" d="M16.6712 0.207639C17.8903 0.00445934 19 0.944549 19 2.18043V14C19 16.2091 17.2091 18 15 18C12.7909 18 11 16.2091 11 14C11 11.7908 12.7909 10 15 10C15.7286 10 16.4117 10.1948 17 10.5351V6.18043L7 7.8471V15C7 15.0592 6.99485 15.1172 6.98498 15.1736C6.99492 15.281 7 15.3899 7 15.5C7 17.433 5.433 19 3.5 19C1.567 19 0 17.433 0 15.5C0 13.567 1.567 12 3.5 12C4.0368 12 4.54537 12.1208 5 12.3368V3.84709C5 2.86942 5.70682 2.03503 6.6712 1.87431L16.6712 0.207639ZM7 5.81951L17 4.15284V2.18043L7 3.84709V5.81951Z" fill="#00A42E"/>
</svg>
