<svg width="20" height="18" viewBox="0 0 20 18" fill="none" xmlns="http://www.w3.org/2000/svg">
<path d="M18 0C19.1046 0 20 0.89543 20 2V16C20 17.1046 19.1046 18 18 18H2C0.89543 18 0 17.1046 0 16V2C0 0.89543 0.89543 0 2 0H18ZM18 2H2V12.1005L6.9948 7.1057C7.48296 6.61757 8.2744 6.61757 8.7626 7.1057L12.8284 11.1716L14.0659 9.9342C14.554 9.446 15.3455 9.446 15.8336 9.9342L18 12.1005V2ZM13.5 4C14.3284 4 15 4.67157 15 5.5C15 6.32843 14.3284 7 13.5 7C12.6716 7 12 6.32843 12 5.5C12 4.67157 12.6716 4 13.5 4Z" fill="#FF9A03"/>
</svg>
