<svg width="20" height="18" viewBox="0 0 20 18" fill="none" xmlns="http://www.w3.org/2000/svg">
<path fill-rule="evenodd" clip-rule="evenodd" d="M2 0C0.89543 0 0 0.89543 0 2V16C0 17.1046 0.89543 18 2 18H18C19.1046 18 20 17.1046 20 16V2C20 0.89543 19.1046 0 18 0H2ZM6.62499 5.6296C6.72188 4.80744 7.57864 4.31143 8.3401 4.63811C8.8441 4.85432 9.9082 5.33973 11.2562 6.11795C12.6049 6.89665 13.5577 7.5759 13.9966 7.904C14.6579 8.3985 14.6608 9.3872 13.9967 9.8836C13.5601 10.21 12.6147 10.883 11.2551 11.6679C9.8961 12.4525 8.8409 12.9347 8.3398 13.1497C7.57694 13.4771 6.72176 12.9789 6.62504 12.1584C6.56076 11.6132 6.44938 10.4451 6.44938 8.8938C6.44938 7.3428 6.5607 6.17504 6.62499 5.6296Z" fill="#E81A89"/>
</svg>
